<mxfile host="Electron" modified="2023-11-08T13:57:19.766Z" agent="Mozilla/5.0 (Windows NT 10.0; Win64; x64) AppleWebKit/537.36 (KHTML, like Gecko) draw.io/21.8.2 Chrome/114.0.5735.289 Electron/25.8.1 Safari/537.36" etag="WpiYHmY-nGPiMMhPsCZS" version="21.8.2" type="device">
  <diagram name="Page-1" id="58cdce13-f638-feb5-8d6f-7d28b1aa9fa0">
    <mxGraphModel dx="1341" dy="702" grid="1" gridSize="10" guides="1" tooltips="1" connect="1" arrows="1" fold="1" page="1" pageScale="1" pageWidth="1100" pageHeight="850" background="none" math="0" shadow="0">
      <root>
        <mxCell id="0" />
        <mxCell id="1" parent="0" />
        <mxCell id="382b91b5511bd0f7-1" value="" style="ellipse;html=1;shape=startState;fillColor=#000000;strokeColor=#ff0000;rounded=1;shadow=0;comic=0;labelBackgroundColor=none;fontFamily=Verdana;fontSize=12;fontColor=#000000;align=center;direction=south;" parent="1" vertex="1">
          <mxGeometry x="130" y="135" width="30" height="30" as="geometry" />
        </mxCell>
        <mxCell id="382b91b5511bd0f7-5" value="Click shape" style="rounded=1;whiteSpace=wrap;html=1;arcSize=24;fillColor=#ffffc0;strokeColor=#ff0000;shadow=0;comic=0;labelBackgroundColor=none;fontFamily=Verdana;fontSize=12;fontColor=#000000;align=center;" parent="1" vertex="1">
          <mxGeometry x="240" y="310" width="120" height="60" as="geometry" />
        </mxCell>
        <mxCell id="uMXTD9tM3YzCn55sNpyY-4" value="Failed to open GUI" style="edgeStyle=orthogonalEdgeStyle;rounded=0;orthogonalLoop=1;jettySize=auto;html=1;entryX=0.5;entryY=0;entryDx=0;entryDy=0;strokeColor=#FF0000;" parent="1" source="382b91b5511bd0f7-6" target="uMXTD9tM3YzCn55sNpyY-12" edge="1">
          <mxGeometry relative="1" as="geometry">
            <mxPoint x="190" y="480" as="targetPoint" />
            <Array as="points">
              <mxPoint x="300" y="270" />
              <mxPoint x="190" y="270" />
            </Array>
          </mxGeometry>
        </mxCell>
        <mxCell id="382b91b5511bd0f7-6" value="Open GUI" style="rounded=1;whiteSpace=wrap;html=1;arcSize=24;fillColor=#ffffc0;strokeColor=#ff0000;shadow=0;comic=0;labelBackgroundColor=none;fontFamily=Verdana;fontSize=12;fontColor=#000000;align=center;" parent="1" vertex="1">
          <mxGeometry x="240" y="120" width="120" height="60" as="geometry" />
        </mxCell>
        <mxCell id="382b91b5511bd0f7-7" value="Detect shape" style="rounded=1;whiteSpace=wrap;html=1;arcSize=24;fillColor=#ffffc0;strokeColor=#ff0000;shadow=0;comic=0;labelBackgroundColor=none;fontFamily=Verdana;fontSize=12;fontColor=#000000;align=center;" parent="1" vertex="1">
          <mxGeometry x="440" y="200" width="120" height="60" as="geometry" />
        </mxCell>
        <mxCell id="3cde6dad864a17aa-13" style="edgeStyle=elbowEdgeStyle;html=1;exitX=0;exitY=0.75;entryX=1;entryY=0.75;labelBackgroundColor=none;endArrow=open;endSize=8;strokeColor=#ff0000;fontFamily=Verdana;fontSize=12;align=left;" parent="1" source="382b91b5511bd0f7-9" target="382b91b5511bd0f7-10" edge="1">
          <mxGeometry relative="1" as="geometry" />
        </mxCell>
        <mxCell id="382b91b5511bd0f7-9" value="Suction on" style="rounded=1;whiteSpace=wrap;html=1;arcSize=24;fillColor=#ffffc0;strokeColor=#ff0000;shadow=0;comic=0;labelBackgroundColor=none;fontFamily=Verdana;fontSize=12;fontColor=#000000;align=center;" parent="1" vertex="1">
          <mxGeometry x="800" y="310" width="120" height="60" as="geometry" />
        </mxCell>
        <mxCell id="uMXTD9tM3YzCn55sNpyY-5" value="Arm moved &lt;br&gt;back to position&lt;br&gt;" style="edgeStyle=orthogonalEdgeStyle;rounded=0;orthogonalLoop=1;jettySize=auto;html=1;exitX=0.75;exitY=0;exitDx=0;exitDy=0;entryX=0;entryY=0.5;entryDx=0;entryDy=0;strokeColor=#FF0000;" parent="1" source="382b91b5511bd0f7-10" target="24f968d109e7d6b4-3" edge="1">
          <mxGeometry x="-0.3846" y="-10" relative="1" as="geometry">
            <mxPoint as="offset" />
          </mxGeometry>
        </mxCell>
        <mxCell id="uMXTD9tM3YzCn55sNpyY-16" value="Failed to move" style="edgeStyle=orthogonalEdgeStyle;rounded=0;orthogonalLoop=1;jettySize=auto;html=1;exitX=0.5;exitY=1;exitDx=0;exitDy=0;entryX=0.5;entryY=0;entryDx=0;entryDy=0;strokeColor=#FF0000;" parent="1" source="382b91b5511bd0f7-10" target="uMXTD9tM3YzCn55sNpyY-12" edge="1">
          <mxGeometry relative="1" as="geometry" />
        </mxCell>
        <mxCell id="382b91b5511bd0f7-10" value="Move arm to position" style="rounded=1;whiteSpace=wrap;html=1;arcSize=24;fillColor=#ffffc0;strokeColor=#ff0000;shadow=0;comic=0;labelBackgroundColor=none;fontFamily=Verdana;fontSize=12;fontColor=#000000;align=center;" parent="1" vertex="1">
          <mxGeometry x="520" y="310" width="120" height="60" as="geometry" />
        </mxCell>
        <mxCell id="2a3bc250acf0617d-7" value="Processing" style="swimlane;whiteSpace=wrap;html=1;rounded=1;shadow=0;comic=0;labelBackgroundColor=none;strokeWidth=1;fontFamily=Verdana;fontSize=12;align=center;" parent="1" vertex="1">
          <mxGeometry x="35" y="75" width="945" height="405" as="geometry" />
        </mxCell>
        <mxCell id="2a3bc250acf0617d-9" style="edgeStyle=orthogonalEdgeStyle;html=1;labelBackgroundColor=none;endArrow=open;endSize=8;strokeColor=#ff0000;fontFamily=Verdana;fontSize=12;align=left;" parent="1" source="382b91b5511bd0f7-1" target="382b91b5511bd0f7-6" edge="1">
          <mxGeometry relative="1" as="geometry" />
        </mxCell>
        <mxCell id="2a3bc250acf0617d-10" value="Show GUI on &lt;br&gt;screen" style="edgeStyle=orthogonalEdgeStyle;html=1;labelBackgroundColor=none;endArrow=open;endSize=8;strokeColor=#FF0000;fontFamily=Verdana;fontSize=12;align=left;entryX=0;entryY=0.5;" parent="1" source="382b91b5511bd0f7-6" target="382b91b5511bd0f7-7" edge="1">
          <mxGeometry x="-0.375" y="-10" relative="1" as="geometry">
            <Array as="points">
              <mxPoint x="330" y="230" />
            </Array>
            <mxPoint as="offset" />
          </mxGeometry>
        </mxCell>
        <mxCell id="2a3bc250acf0617d-11" value="Shape detected" style="edgeStyle=orthogonalEdgeStyle;html=1;entryX=0.75;entryY=0;labelBackgroundColor=none;endArrow=open;endSize=8;strokeColor=#ff0000;fontFamily=Verdana;fontSize=12;align=left;exitX=0.5;exitY=1;" parent="1" source="382b91b5511bd0f7-7" target="382b91b5511bd0f7-5" edge="1">
          <mxGeometry x="0.2727" y="10" relative="1" as="geometry">
            <mxPoint x="520" y="300" as="sourcePoint" />
            <Array as="points">
              <mxPoint x="500" y="290" />
              <mxPoint x="330" y="290" />
            </Array>
            <mxPoint as="offset" />
          </mxGeometry>
        </mxCell>
        <mxCell id="2a3bc250acf0617d-13" value="User clicks on shape" style="edgeStyle=orthogonalEdgeStyle;html=1;exitX=1;exitY=0.5;entryX=0;entryY=0.5;labelBackgroundColor=none;endArrow=open;endSize=8;strokeColor=#ff0000;fontFamily=Verdana;fontSize=12;align=left;" parent="1" source="382b91b5511bd0f7-5" target="382b91b5511bd0f7-10" edge="1">
          <mxGeometry x="-0.75" y="-10" relative="1" as="geometry">
            <mxPoint as="offset" />
          </mxGeometry>
        </mxCell>
        <mxCell id="2a3bc250acf0617d-15" style="edgeStyle=orthogonalEdgeStyle;html=1;exitX=1;exitY=0.25;entryX=0;entryY=0.25;labelBackgroundColor=none;endArrow=open;endSize=8;strokeColor=#ff0000;fontFamily=Verdana;fontSize=12;align=left;" parent="1" source="382b91b5511bd0f7-10" target="382b91b5511bd0f7-9" edge="1">
          <mxGeometry relative="1" as="geometry" />
        </mxCell>
        <mxCell id="uMXTD9tM3YzCn55sNpyY-1" value="Initial/start code" style="text;html=1;strokeColor=none;fillColor=none;align=center;verticalAlign=middle;whiteSpace=wrap;rounded=0;" parent="1" vertex="1">
          <mxGeometry x="115" y="160" width="60" height="30" as="geometry" />
        </mxCell>
        <mxCell id="uMXTD9tM3YzCn55sNpyY-2" value="" style="endArrow=classic;html=1;rounded=0;entryX=0.581;entryY=0.05;entryDx=0;entryDy=0;entryPerimeter=0;strokeColor=#FF0000;" parent="1" edge="1">
          <mxGeometry width="50" height="50" relative="1" as="geometry">
            <mxPoint x="480" y="200" as="sourcePoint" />
            <mxPoint x="539.72" y="203" as="targetPoint" />
            <Array as="points">
              <mxPoint x="480" y="150" />
              <mxPoint x="540" y="150" />
            </Array>
          </mxGeometry>
        </mxCell>
        <mxCell id="jBtHltvp6s7sFzC9Cqys-1" value="Detecint shape" style="edgeLabel;html=1;align=center;verticalAlign=middle;resizable=0;points=[];" vertex="1" connectable="0" parent="uMXTD9tM3YzCn55sNpyY-2">
          <mxGeometry x="0.0879" y="-4" relative="1" as="geometry">
            <mxPoint as="offset" />
          </mxGeometry>
        </mxCell>
        <mxCell id="uMXTD9tM3YzCn55sNpyY-18" value="" style="edgeStyle=orthogonalEdgeStyle;rounded=0;orthogonalLoop=1;jettySize=auto;html=1;" parent="1" source="uMXTD9tM3YzCn55sNpyY-3" target="uMXTD9tM3YzCn55sNpyY-17" edge="1">
          <mxGeometry relative="1" as="geometry" />
        </mxCell>
        <mxCell id="uMXTD9tM3YzCn55sNpyY-3" value="Write error report" style="rounded=1;whiteSpace=wrap;html=1;arcSize=24;fillColor=#ffffc0;strokeColor=#ff0000;shadow=0;comic=0;labelBackgroundColor=none;fontFamily=Verdana;fontSize=12;fontColor=#000000;align=center;" parent="1" vertex="1">
          <mxGeometry x="130" y="530" width="120" height="60" as="geometry" />
        </mxCell>
        <mxCell id="uMXTD9tM3YzCn55sNpyY-6" style="edgeStyle=elbowEdgeStyle;html=1;exitX=0;exitY=0.75;labelBackgroundColor=none;endArrow=open;endSize=8;strokeColor=#ff0000;fontFamily=Verdana;fontSize=12;align=left;" parent="1" edge="1">
          <mxGeometry relative="1" as="geometry">
            <mxPoint x="640" y="355" as="targetPoint" />
            <mxPoint x="790" y="440" as="sourcePoint" />
          </mxGeometry>
        </mxCell>
        <mxCell id="uMXTD9tM3YzCn55sNpyY-7" value="Suction off" style="rounded=1;whiteSpace=wrap;html=1;arcSize=24;fillColor=#ffffc0;strokeColor=#ff0000;shadow=0;comic=0;labelBackgroundColor=none;fontFamily=Verdana;fontSize=12;fontColor=#000000;align=center;" parent="1" vertex="1">
          <mxGeometry x="790" y="395" width="120" height="60" as="geometry" />
        </mxCell>
        <mxCell id="uMXTD9tM3YzCn55sNpyY-8" style="edgeStyle=orthogonalEdgeStyle;html=1;entryX=0;entryY=0.25;labelBackgroundColor=none;endArrow=open;endSize=8;strokeColor=#ff0000;fontFamily=Verdana;fontSize=12;align=left;" parent="1" edge="1">
          <mxGeometry relative="1" as="geometry">
            <mxPoint x="690" y="325" as="sourcePoint" />
            <mxPoint x="790" y="410" as="targetPoint" />
            <Array as="points">
              <mxPoint x="690" y="410" />
            </Array>
          </mxGeometry>
        </mxCell>
        <mxCell id="24f968d109e7d6b4-3" value="" style="ellipse;html=1;shape=endState;fillColor=#000000;strokeColor=#ff0000;rounded=1;shadow=0;comic=0;labelBackgroundColor=none;fontFamily=Verdana;fontSize=12;fontColor=#000000;align=center;" parent="1" vertex="1">
          <mxGeometry x="660" y="215" width="30" height="30" as="geometry" />
        </mxCell>
        <mxCell id="uMXTD9tM3YzCn55sNpyY-10" value="Finish" style="text;html=1;strokeColor=none;fillColor=none;align=center;verticalAlign=middle;whiteSpace=wrap;rounded=0;" parent="1" vertex="1">
          <mxGeometry x="645" y="245" width="60" height="30" as="geometry" />
        </mxCell>
        <mxCell id="uMXTD9tM3YzCn55sNpyY-12" value="" style="ellipse;whiteSpace=wrap;html=1;aspect=fixed;" parent="1" vertex="1">
          <mxGeometry x="175" y="470" width="30" height="30" as="geometry" />
        </mxCell>
        <mxCell id="uMXTD9tM3YzCn55sNpyY-13" value="" style="endArrow=none;html=1;rounded=0;entryX=1;entryY=0;entryDx=0;entryDy=0;exitX=0.142;exitY=0.888;exitDx=0;exitDy=0;exitPerimeter=0;" parent="1" source="uMXTD9tM3YzCn55sNpyY-12" target="uMXTD9tM3YzCn55sNpyY-12" edge="1">
          <mxGeometry width="50" height="50" relative="1" as="geometry">
            <mxPoint x="175" y="500" as="sourcePoint" />
            <mxPoint x="205" y="470" as="targetPoint" />
          </mxGeometry>
        </mxCell>
        <mxCell id="uMXTD9tM3YzCn55sNpyY-14" value="" style="endArrow=none;html=1;rounded=0;entryX=0.064;entryY=0.164;entryDx=0;entryDy=0;entryPerimeter=0;exitX=1;exitY=1;exitDx=0;exitDy=0;" parent="1" source="uMXTD9tM3YzCn55sNpyY-12" target="uMXTD9tM3YzCn55sNpyY-12" edge="1">
          <mxGeometry width="50" height="50" relative="1" as="geometry">
            <mxPoint x="205" y="500" as="sourcePoint" />
            <mxPoint x="170" y="470" as="targetPoint" />
          </mxGeometry>
        </mxCell>
        <mxCell id="uMXTD9tM3YzCn55sNpyY-15" style="edgeStyle=orthogonalEdgeStyle;rounded=0;orthogonalLoop=1;jettySize=auto;html=1;exitX=0.5;exitY=1;exitDx=0;exitDy=0;entryX=0.5;entryY=-0.029;entryDx=0;entryDy=0;entryPerimeter=0;" parent="1" source="uMXTD9tM3YzCn55sNpyY-12" target="uMXTD9tM3YzCn55sNpyY-3" edge="1">
          <mxGeometry relative="1" as="geometry" />
        </mxCell>
        <mxCell id="uMXTD9tM3YzCn55sNpyY-21" style="edgeStyle=orthogonalEdgeStyle;rounded=0;orthogonalLoop=1;jettySize=auto;html=1;exitX=1;exitY=0.5;exitDx=0;exitDy=0;entryX=0;entryY=0.5;entryDx=0;entryDy=0;" parent="1" source="uMXTD9tM3YzCn55sNpyY-17" target="uMXTD9tM3YzCn55sNpyY-19" edge="1">
          <mxGeometry relative="1" as="geometry" />
        </mxCell>
        <mxCell id="uMXTD9tM3YzCn55sNpyY-17" value="Display results" style="rounded=1;whiteSpace=wrap;html=1;arcSize=24;fillColor=#ffffc0;strokeColor=#ff0000;shadow=0;comic=0;labelBackgroundColor=none;fontFamily=Verdana;fontSize=12;fontColor=#000000;align=center;" parent="1" vertex="1">
          <mxGeometry x="330" y="530" width="120" height="60" as="geometry" />
        </mxCell>
        <mxCell id="uMXTD9tM3YzCn55sNpyY-19" value="" style="ellipse;html=1;shape=endState;fillColor=#000000;strokeColor=#ff0000;rounded=1;shadow=0;comic=0;labelBackgroundColor=none;fontFamily=Verdana;fontSize=12;fontColor=#000000;align=center;" parent="1" vertex="1">
          <mxGeometry x="485" y="545" width="30" height="30" as="geometry" />
        </mxCell>
        <mxCell id="uMXTD9tM3YzCn55sNpyY-20" value="Finish" style="text;html=1;strokeColor=none;fillColor=none;align=center;verticalAlign=middle;whiteSpace=wrap;rounded=0;" parent="1" vertex="1">
          <mxGeometry x="470" y="575" width="60" height="30" as="geometry" />
        </mxCell>
        <mxCell id="uMXTD9tM3YzCn55sNpyY-22" value="Failed" style="text;html=1;strokeColor=none;fillColor=none;align=center;verticalAlign=middle;whiteSpace=wrap;rounded=0;" parent="1" vertex="1">
          <mxGeometry x="190" y="490" width="60" height="30" as="geometry" />
        </mxCell>
      </root>
    </mxGraphModel>
  </diagram>
</mxfile>
